<svg width="512" height="512" viewBox="0 0 512 512" fill="none" xmlns="http://www.w3.org/2000/svg">
<g clip-path="url(#clip0_1044_5)">
<path d="M214.879 326.262H215.531V140.305H242.61V373.24H216.51L84.0568 174.559H83.4045V373.24H56V140.305H90.5802L214.879 326.262Z" fill="#231F20"/>
<path d="M274.287 371.935V139H364.002C416.202 139 445.89 163.469 445.89 208.164C445.89 246.009 419.464 267.213 392.059 273.413L456.001 371.938H424.356L364.002 277.653H302.018V371.938H274.287V371.935ZM362.372 254.163C397.604 254.163 417.507 238.504 417.507 208.164C417.507 177.824 397.607 162.49 362.372 162.49H302.018V254.163H362.372Z" fill="#231F20"/>
</g>
<defs>
<clipPath id="clip0_1044_5">
<rect width="400" height="234.24" fill="white" transform="translate(56 139)"/>
</clipPath>
</defs>
</svg>
