<?xml version="1.0" encoding="UTF-8"?>
<svg id="Layer_1" data-name="Layer 1" xmlns="http://www.w3.org/2000/svg" xmlns:xlink="http://www.w3.org/1999/xlink" viewBox="0 0 951.23 97.64">
  <defs>
    <style>
      .cls-1 {
        clip-path: url(#clippath);
      }

      .cls-2 {
        fill: none;
      }

      .cls-2, .cls-3 {
        stroke-width: 0px;
      }

      .cls-3 {
        fill: #231f20;
      }
    </style>
    <clipPath id="clippath">
      <rect class="cls-2" y="0" width="951.23" height="97.64"/>
    </clipPath>
  </defs>
  <g class="cls-1">
    <path class="cls-3" d="M880.58,68.4c1.19,20.64,18.26,29.24,37.71,29.24s32.94-11.51,32.94-26.99-9.26-21.04-23.29-23.95l-18.79-3.84c-12.17-2.51-17.73-6.22-17.73-16.41,0-10.98,8.86-19.45,23.81-19.45s24.48,6.61,26.2,17.86h7.8c-1.72-16.8-14.95-24.87-34-24.87s-31.49,11.64-31.49,26.46c0,16.01,11.24,21.43,23.42,23.81l18.26,3.7c13.63,2.51,18.12,8.47,18.12,16.93,0,12.44-10.45,19.71-25.27,19.71s-28.44-5.69-30.03-22.23h-7.67ZM791.81,49.08V8.73h26.2c14.95,0,23.95,7.14,23.95,20.11s-9,20.24-23.95,20.24h-26.2ZM791.81,96.05v-39.95h27.25l26.2,39.95h9.26l-27.12-41.01c11.24-1.98,22.75-10.58,22.75-26.2,0-17.6-11.51-27.25-32.15-27.25h-34.13v94.46h7.94ZM748.15,96.05v-7.14h-53.32v-36.38h47.76v-7.15h-47.76V8.73h53.58V1.59h-61.52v94.46h61.26ZM570.07,48.69c0,30.03,18.39,48.95,42.47,48.95,13.23,0,26.2-7.67,29.77-18.65l1.06,17.07h6.48v-46.57h-32.28v7.01h24.61v5.82c0,17.33-12.96,28.05-30.03,28.05-21.3,0-33.74-16.93-33.74-41.67s12.83-41.41,34.27-41.41c15.48,0,24.87,8.2,27.39,20.77h8.07c-3.04-16.8-15.35-28.05-35.46-28.05-23.81,0-42.6,18.79-42.6,48.69M534.22,48.82c0,23.95-11.38,41.54-33.47,41.54s-33.6-17.6-33.6-41.54,11.38-41.54,33.6-41.54,33.47,17.73,33.47,41.54M542.56,48.82c0-28.31-16.54-48.82-41.81-48.82s-41.94,20.51-41.94,48.82,16.54,48.82,41.94,48.82,41.81-20.37,41.81-48.82M370.04,49.08V8.73h26.2c14.95,0,23.95,7.14,23.95,20.11s-9,20.24-23.95,20.24h-26.2ZM370.04,96.05v-39.95h27.25l26.2,39.95h9.26l-27.12-41.01c11.25-1.98,22.76-10.58,22.76-26.2,0-17.6-11.51-27.25-32.15-27.25h-34.13v94.46h7.94ZM240.78,8.73c23.68,0,37.04,16.27,37.04,40.09s-13.36,40.09-37.04,40.09h-23.95V8.73h23.95ZM240.78,1.59h-31.88v94.46h31.88c26.72,0,45.38-18.79,45.38-47.23S267.51,1.59,240.78,1.59M173.18,96.05v-7.14h-53.32v-36.38h47.76v-7.15h-47.76V8.73h53.58V1.59h-61.52v94.46h61.25ZM10.32,1.59H0v94.46h7.81V11.38h.27l56.62,84.67h7.54V1.59h-7.81v80.17h-.26L10.32,1.59Z"/>
  </g>
</svg>