<svg width="512" height="512" viewBox="0 0 512 512" fill="none" xmlns="http://www.w3.org/2000/svg">
<g clip-path="url(#clip0_1044_5)">
<path d="M209.739 334.67H210.473V125.468H240.936V387.52H211.573L62.5639 164.004H61.83V387.52H31V125.468H69.9027L209.739 334.67Z" fill="#231F20"/>
<path d="M276.572 386.052V124H377.502C436.227 124 469.625 151.528 469.625 201.809C469.625 244.385 439.896 268.239 409.066 275.215L481 386.055H445.4L377.502 279.985H307.769V386.055H276.572V386.052ZM375.667 253.558C415.304 253.558 437.694 235.941 437.694 201.809C437.694 167.677 415.307 150.427 375.667 150.427H307.769V253.558H375.667Z" fill="#231F20"/>
</g>
<defs>
<clipPath id="clip0_1044_5">
<rect width="450" height="263.52" fill="white" transform="translate(31 124)"/>
</clipPath>
</defs>
</svg>
